<?xml version="1.0" encoding="utf-8"?><svg xmlns="http://www.w3.org/2000/svg" xmlns:xlink="http://www.w3.org/1999/xlink"><symbol fill="none" viewBox="0 0 16 16" id="arrow" xmlns="http://www.w3.org/2000/svg"><path fill-rule="evenodd" clip-rule="evenodd" d="M16 7H3.8l5.6-5.6L8 0 0 8l8 8 1.4-1.4L3.8 9H16V7z" fill="currentColor"/></symbol><symbol fill="none" viewBox="0 0 16 18" id="bodytype" xmlns="http://www.w3.org/2000/svg"><path d="M3.215 8.545h0a.447.447 0 01.331-.534m-.331.534l9.894-.485a.39.39 0 00-.468.298l-.049-.011h0l-1.336 5.926a.453.453 0 00-.002.19l.05-.01-.05.01.35 1.694H5.063l.349-1.693-.049-.01.049.01a.452.452 0 00-.002-.19L4.074 8.346a.44.44 0 00-.528-.336m-.331.534l1.314 5.832-.367 1.78h-1.62l-.705-9.396a1.714 1.714 0 011.372-1.82l2.025-.39h0a1.94 1.94 0 001.559-1.91v0-.798h3.081v.798a1.94 1.94 0 001.559 1.91l.01-.05-.01.05 2.024.39a1.714 1.714 0 011.373 1.82l-.705 9.396-10.91-7.612zm.331-.534l.011.049-.011-.05s0 0 0 0zm10.077-3.946l-.01.049.01-.05-2.025-.39a1.049 1.049 0 01-.842-1.033v-.849A.838.838 0 009.924.95H6.742a.838.838 0 00-.831.842v.849c0 .504-.355.938-.842 1.033l-2.025.39h0C1.754 4.315.858 5.503.958 6.829l.708 9.444h0a.84.84 0 00.83.778H14.17a.84.84 0 00.83-.779l.708-9.443c.1-1.326-.797-2.514-2.086-2.763z" fill="currentColor" stroke="currentColor" stroke-width=".1"/><path d="M8.334 5.677c-.201 0-.363.165-.363.367v6.867c0 .202.162.367.363.367.2 0 .362-.165.362-.367V6.044a.365.365 0 00-.362-.367z" fill="currentColor" stroke="#848484" stroke-width=".1"/></symbol><symbol fill="currentColor" viewBox="0 0 20 20" id="check" xmlns="http://www.w3.org/2000/svg"><path d="M10 0C4.486 0 0 4.486 0 10s4.486 10 10 10 10-4.486 10-10S15.514 0 10 0z" fill="#2196F3"/><path d="M15.068 7.88l-5.416 5.417a.831.831 0 01-1.179 0L5.765 10.59a.832.832 0 111.178-1.178l2.12 2.119 4.827-4.827a.832.832 0 111.178 1.178z" fill="#FAFAFA"/></symbol><symbol fill="none" viewBox="0 0 12 18" id="child" xmlns="http://www.w3.org/2000/svg"><path d="M7.35 15.885h0a.413.413 0 01.228.536 1.08 1.08 0 01-1.009.679H5.431a1.08 1.08 0 01-1.01-.68h0a.413.413 0 01.23-.535h0a.411.411 0 01.535.23m2.163-.23l-.78.39H5.431a.264.264 0 01-.245-.16m2.163-.23a.411.411 0 00-.535.23l.535-.23zm-2.163.23l-.093.036.093-.037s0 0 0 0z" fill="currentColor" stroke="#848484" stroke-width=".2"/><path d="M8.77 8.896a4.04 4.04 0 012.117 2.98c.071.476-.068.96-.382 1.326 0 0 0 0 0 0L8.771 8.896zm0 0a3.692 3.692 0 00-1.63-5.925c.164-.24.251-.523.251-.819 0-.69-.56-1.252-1.249-1.252h0c-.277 0-.54.09-.739.258m3.368 7.738L5.403 1.158m0 0s0 0 0 0l.064.077-.064-.077zm.53.631l-.064-.076.065.076h0zm0 0a.323.323 0 01.209-.064h0c.234 0 .426.191.426.427 0 .17-.066.33-.186.45l-.448-.813zm4.17 13.376h0a.82.82 0 00-.641-1.321.813.813 0 00-.756.511L8.3 15.362c-.122.305 0 .66.283.824 0 0 0 0 0 0l1.52-1.021zm0 0l-.667.855m.667-.855l-.667.855m0 0s0 0 0 0h0zm1.634-1.672a1.642 1.642 0 00-.671-1.034L2.107 9.92a3.94 3.94 0 00-.895 1.97c-.067.448.064.903.359 1.247l-.076.065s0 0 0 0c.034.04.069.077.106.112a1.642 1.642 0 00-.353 2.36l.079-.062-.079.061.667.855a1.488 1.488 0 001.913.372c.637-.369.91-1.162.634-1.846l-.404-1.007-.093.037.093-.037a1.513 1.513 0 00-.024-.056h2.122a.412.412 0 000-.825H3.378v-.56c0-.03.024-.053.053-.053H8.57c.029 0 .053.024.053.054v.644a1.64 1.64 0 00-.68.796l.093.037-.093-.037-.405 1.007a1.497 1.497 0 00.635 1.846l.05-.086-.05.086a1.488 1.488 0 001.912-.372l-.078-.061.079.061.667-.855s0 0 0 0c.292-.375.408-.857.318-1.325zM2.323 6.476c0 .925.343 1.772.906 2.42l3.153-6.293a.63.63 0 01-.45.186h0l-.027.002a3.686 3.686 0 00-3.582 3.685zm.24 9.544l-.078.062.079-.062-.667-.855-.08.062.08-.062a.82.82 0 01.234-1.212l-.05-.086.05.086a.812.812 0 011.163.402s0 0 0 0l.405 1.008c.122.304 0 .659-.283.823l.05.086-.05-.086a.664.664 0 01-.852-.166zm7.318-3.356l.076.065-.076-.065a.827.827 0 01-.436.266v-.323a.88.88 0 00-.463-.775v-.317a.412.412 0 10-.823 0v.213H3.843v-.213a.412.412 0 10-.824 0v.316a.88.88 0 00-.465.776v.323a.827.827 0 01-.627-.932 3.197 3.197 0 011.967-2.502A3.65 3.65 0 006 10.162a3.65 3.65 0 002.106-.666 3.197 3.197 0 011.966 2.502.832.832 0 01-.191.666zM3.147 6.476A2.86 2.86 0 016 3.614a2.86 2.86 0 012.853 2.862A2.86 2.86 0 016 9.337a2.86 2.86 0 01-2.853-2.861z" fill="currentColor" stroke="currentColor" stroke-width=".2"/><path d="M7.685 13.87a.415.415 0 000-.584.413.413 0 00-.291-.12l-.292.703a.412.412 0 00.583 0zm0 0s0 0 0 0l-.071-.071.07.07s0 0 0 0zM5.284 6.184h0a.413.413 0 01-.291.704.41.41 0 01-.292-.12s0 0 0 0l.583-.584zm0 0a.824.824 0 00-1.167 0h0m1.167 0H4.117m0 0a.413.413 0 000 .583v-.583zM6.343 7.526h0a.411.411 0 01.58-.06l-.58.06zm0 0A.44.44 0 016 7.691m.343-.165L6 7.691m-.922-.225h0a.411.411 0 01.579.06l-.58-.06zm0 0a.413.413 0 00-.06.58l.06-.58zM6 7.69a.44.44 0 01-.343-.165L6 7.691zm-.983.355a1.26 1.26 0 001.966 0 .413.413 0 00-.06-.58l-1.906.58zM7.884 6.184h0c.16.161.16.422 0 .583 0 0 0 0 0 0l-.07-.07a.311.311 0 01-.442 0l.512-.513zm0 0a.825.825 0 00-1.167 0h0m1.167 0H6.717m0 0a.413.413 0 000 .583v-.583zm.582.583h.003-.585a.41.41 0 00.582 0l-.07-.07.07.07z" fill="currentColor" stroke="#848484" stroke-width=".2"/></symbol><symbol fill="none" viewBox="0 0 16 16" id="drink" xmlns="http://www.w3.org/2000/svg"><path d="M13.5 5.5a5.435 5.435 0 00-.141-1.241L12.487.39A.499.499 0 0012 0H4a.5.5 0 00-.488.39l-.871 3.867A5.377 5.377 0 002.5 5.5a5.506 5.506 0 005 5.475V15h-2a.5.5 0 000 1h5a.5.5 0 000-1h-2v-4.025a5.506 5.506 0 005-5.475zM3.553 5c.017-.154.016-.315.048-.46l.009-.034L4.4 1h7.201l.79 3.506.008.031c.032.147.031.309.048.463H3.553z" fill="currentColor"/></symbol><symbol fill="currentColor" viewBox="0 0 20 20" id="fb" xmlns="http://www.w3.org/2000/svg"><path fill-rule="evenodd" clip-rule="evenodd" d="M20 10c0-5.522-4.478-10-10-10S0 4.478 0 10c0 4.99 3.656 9.128 8.438 9.88V12.89h-2.54V10h2.54V7.796c0-2.506 1.493-3.89 3.777-3.89 1.094 0 2.239.195 2.239.195v2.46h-1.262c-1.242 0-1.63.771-1.63 1.563V10h2.774l-.444 2.891h-2.33v6.988c4.782-.75 8.438-4.887 8.438-9.88V10z" fill="#703EF0"/><path fill-rule="evenodd" clip-rule="evenodd" d="M13.892 12.892L14.335 10h-2.773V8.124c0-.79.387-1.562 1.63-1.562h1.261v-2.46s-1.144-.196-2.238-.196c-2.284 0-3.778 1.383-3.778 3.89v2.205h-2.54v2.89h2.54v6.989a10.058 10.058 0 003.125 0v-6.988h2.33z" fill="#fff"/></symbol><symbol fill="none" viewBox="0 0 17 18" id="hair" xmlns="http://www.w3.org/2000/svg"><path d="M16.076 13.586l.149-.087-.108-.135-.178-.225h0a7.111 7.111 0 01-1.552-4.397V6.419C14.387 3.34 11.738.85 8.5.85c-3.238 0-5.887 2.49-5.887 5.57v2.322c0 1.574-.55 3.136-1.552 4.397h0l-.178.225-.108.135.149.087.252.149s0 0 0 0c.07.041 1.227.706 3.687 1.088-.13.119-.27.233-.415.34h0l-.443.325-.082.06.026.1.368 1.39.03.112h8.307l.03-.112.367-1.39.026-.1-.082-.06-.443-.325s0 0 0 0a5.133 5.133 0 01-.415-.34c2.457-.382 3.615-1.045 3.687-1.088 0 0 0 0 0 0l.252-.149zm-4.037 2.226h0l.08.059-.123.463H5.004l-.123-.463.08-.059h0c1.338-.983 2.16-2.421 2.3-4.002a4.408 4.408 0 002.477 0c.141 1.58.963 3.02 2.3 4.002zm-6.94-7.844v-1.29c0-.337.292-.625.67-.625h1.368a9.364 9.364 0 004.758-1.288.02.02 0 01.007.002v3.2s0 0 0 0c0 1.76-1.518 3.206-3.402 3.206-1.884 0-3.402-1.446-3.402-3.205zm9.87 5.266c-.561.236-1.704.629-3.494.856a4.651 4.651 0 01-.909-2.612c1.297-.686 2.182-1.999 2.182-3.51V4.756c0-.454-.388-.81-.848-.81a.877.877 0 00-.446.122 8.493 8.493 0 01-4.317 1.17H5.768c-.828 0-1.516.637-1.516 1.44v1.29c0 1.511.885 2.824 2.182 3.51a4.65 4.65 0 01-.908 2.612c-1.783-.227-2.93-.62-3.494-.857a7.893 7.893 0 001.427-4.491V6.419c0-2.613 2.253-4.753 5.041-4.753 2.788 0 5.04 2.14 5.04 4.753v2.323c0 1.59.505 3.167 1.429 4.492z" fill="currentColor" stroke="currentColor" stroke-width=".3"/></symbol><symbol fill="none" viewBox="0 0 26 26" id="heart" xmlns="http://www.w3.org/2000/svg"><path d="M23.937 3.686c-1.346-1.46-3.192-2.264-5.2-2.264-1.5 0-2.875.474-4.085 1.41A8.358 8.358 0 0013 4.557a8.353 8.353 0 00-1.652-1.725c-1.21-.936-2.584-1.41-4.085-1.41-2.008 0-3.855.804-5.2 2.264C.732 5.128 0 7.099 0 9.236c0 2.198.82 4.211 2.579 6.334 1.574 1.9 3.836 3.827 6.455 6.059.894.762 1.908 1.626 2.96 2.547a1.525 1.525 0 002.01 0c1.053-.92 2.068-1.785 2.963-2.548 2.619-2.231 4.88-4.159 6.455-6.058C25.18 13.447 26 11.434 26 9.235c0-2.136-.733-4.107-2.063-5.55z" fill="currentColor"/></symbol><symbol fill="none" viewBox="0 0 18 18" id="height" xmlns="http://www.w3.org/2000/svg"><path d="M16.978 4.341h0a.415.415 0 010 .587l-12.05 12.05a.414.414 0 01-.587 0l-3.32-3.32.071-.07-.07.07a.415.415 0 010-.586h0l1.066-1.066.029-.03h0l.03-.029L8.69 5.403l.07.071-.07-.07h0l.07.07-.07-.07h0l2.19-2.19 6.098 1.127zm0 0l-3.32-3.32h0m3.32 3.32l-3.32-3.32m0 0a.415.415 0 00-.586 0h0m.587 0h-.587m0 0L10.91 3.184l2.162-2.161zM10.88 3.214h0zm0 0h-.001 0zm1.976-.803l.936.937s0 0 0 0a.415.415 0 01-.587.586l-.936-.936-.51.509.482.481-.07.07.07-.07a.415.415 0 01-.587.587l-.481-.481-.509.508.937.937a.415.415 0 010 .587h0a.414.414 0 01-.587 0l.07-.071-.07.07-.937-.936-.508.509.481.481s0 0 0 0a.415.415 0 11-.587.587l-.481-.481-.508.508.936.936h0a.415.415 0 010 .587l3.446-5.905zm0 0l.508-.508 2.733 2.733L4.635 16.098l-2.733-2.733.508-.508.482.48a.414.414 0 10.587-.586h0l-.482-.481.509-.509.936.936a.414.414 0 00.587 0h0a.415.415 0 000-.587l-.936-.936.508-.508.482.48a.414.414 0 00.587 0 .415.415 0 000-.586h0l-.482-.481.509-.509.936.936.07-.07-.07.07a.414.414 0 00.587 0 .415.415 0 000-.587l-.936-.936.508-.508.481.48s0 0 0 0a.414.414 0 10.587-.586h0l-.481-.481.509-.509.936.936a.414.414 0 00.587 0l3.446-5.905z" fill="currentColor" stroke="currentColor" stroke-width=".2"/><path d="M5.843 12.947h0a.415.415 0 01.587 0h0a.415.415 0 010 .587h0m-.587-.587l.517.517.07.07m-.587-.587l-1.635 1.635a.415.415 0 000 .587h0a.414.414 0 00.587 0l1.048-2.222zm.587.587L4.795 15.17l1.635-1.635zM7.304 11.567A.39.39 0 007 11.7a.433.433 0 00-.1.282c0 .099.032.202.1.281a.39.39 0 00.304.134.39.39 0 00.304-.134c.069-.08.1-.182.1-.281 0-.1-.031-.202-.1-.282a.39.39 0 00-.304-.133z" fill="currentColor" stroke="#fff" stroke-width=".2"/></symbol><symbol fill="none" viewBox="0 0 16 16" id="relationship" xmlns="http://www.w3.org/2000/svg"><path d="M15.389 6.708a1.408 1.408 0 00-1.854.23V2.345a1.407 1.407 0 00-1.925-1.307A1.406 1.406 0 009.068.65a1.408 1.408 0 00-2.096 1.225v.08a1.407 1.407 0 00-1.875 1.326v1.16c-.343.18-.603.496-.707.877a1.407 1.407 0 00-1.925 1.307v3.658a1.408 1.408 0 00-2.22 1.725c1.429 2.09 1.325 1.95 1.397 2.01l1.76 1.453v.06a.469.469 0 10.938 0v-.281a.469.469 0 00-.17-.361l-1.88-1.552-1.27-1.858a.471.471 0 01.776-.531l.75 1.098a.469.469 0 00.857-.265V6.625a.47.47 0 11.937.016v2.796a.469.469 0 00.938 0v-3.75a.47.47 0 01.937 0v3.75a.469.469 0 00.938 0v-3.28a.47.47 0 01.938 0v3.28a.469.469 0 00.937 0V7.875a.47.47 0 01.938 0v4.455c0 .73-.285 1.416-.8 1.932a.469.469 0 00-.138.332v.937a.469.469 0 10.938 0v-.75a3.643 3.643 0 00.937-2.45V7.874c0-.677-.48-1.244-1.119-1.377V1.406a.47.47 0 01.938 0v4.282a.469.469 0 00.937 0V2.358a.47.47 0 11.938-.015v6.094a.469.469 0 00.856.264l.75-1.098a.47.47 0 11.778.531l-1.275 1.864-1.7 1.492a.47.47 0 00-.16.353v3.687a.469.469 0 00.938 0v-3.475c1.727-1.516 1.615-1.41 1.663-1.479l1.308-1.913a1.41 1.41 0 00-.367-1.956zM6.034 4.31V3.28a.47.47 0 01.938 0V4.91a1.469 1.469 0 00-.04.022 1.41 1.41 0 00-.898-.621zm1.875.469V1.875a.47.47 0 01.938 0v3.592a1.41 1.41 0 00-.938-.687zM2.23 2.894a.469.469 0 00.663-.663l-.656-.656a.469.469 0 00-.663.663l.656.656zM4.07 1.55a.469.469 0 00.906-.242l-.24-.896a.469.469 0 00-.905.243l.24.896zM.411 4.737l.896.24a.469.469 0 00.243-.906l-.896-.24a.469.469 0 00-.243.906z" fill="currentColor"/></symbol><symbol fill="none" viewBox="0 0 16 16" id="religion" xmlns="http://www.w3.org/2000/svg"><path d="M15.998 11.557a.526.526 0 00-.18-.363l-2.89-2.431a.44.44 0 00-.62.046l-.24.267-.697-.615-.822-7.032-.001-.008C10.442.611 9.798 0 9.048 0 8.64 0 8.271.175 8 .46A1.447 1.447 0 006.953 0c-.75 0-1.395.611-1.501 1.421v.008L4.628 8.46l-.696.616-.241-.268a.44.44 0 00-.62-.046l-2.89 2.432a.541.541 0 00-.057.754l3.312 3.888a.452.452 0 00.336.163h.007a.45.45 0 00.333-.152L6.76 12.93a.545.545 0 000-.72l-.152-.169L8 10.521l1.393 1.52-.153.17c-.18.2-.18.52.001.719l2.646 2.918a.45.45 0 00.333.152h.007a.452.452 0 00.336-.163l3.311-3.889a.54.54 0 00.124-.39zM3.791 14.75l-2.629-3.087L3.315 9.85l2.452 2.719-1.977 2.18zm3.583-4.992L5.95 11.312 4.594 9.81l.771-.682a.525.525 0 00.17-.333l.845-7.232c.042-.307.288-.539.573-.539.319 0 .578.284.578.632v7.688a.61.61 0 01-.157.414zm1.252 0a.61.61 0 01-.157-.414V1.655c0-.348.26-.632.578-.632.285 0 .53.232.573.54l.845 7.231c.015.131.076.25.17.333l.771.682-1.355 1.503-1.425-1.555zm3.584 4.992l-1.977-2.18 2.452-2.719 2.153 1.812-2.628 3.087z" fill="currentColor"/></symbol><symbol fill="none" viewBox="0 0 16 16" id="sexuality" xmlns="http://www.w3.org/2000/svg"><path d="M12.934 0v.98h1.18l-2.301 2.044a4.623 4.623 0 00-3.206-1.267c-1.688 0-3.16.879-3.925 2.173a4.814 4.814 0 00-.198-.004C2.01 3.926 0 5.81 0 8.126c0 2.15 1.734 3.929 3.961 4.172V13.6H2.396v.98H3.96V16h1.046v-1.42H6.64v-.98H5.007v-1.302c1.466-.16 2.718-.985 3.403-2.144.065.002.131.004.197.004 2.473 0 4.484-1.884 4.484-4.2 0-.788-.232-1.525-.636-2.155l2.5-2.22V2.8H16V0h-3.066zm-8.45 11.347c-1.896 0-3.438-1.445-3.438-3.22 0-1.708 1.424-3.108 3.218-3.215-.092.334-.14.685-.14 1.046 0 1.89 1.338 3.491 3.174 4.017-.623.83-1.652 1.372-2.814 1.372zm3.284-2.266C6.277 8.73 5.169 7.462 5.169 5.958c0-.333.054-.654.154-.955 1.492.351 2.6 1.618 2.6 3.123 0 .333-.055.653-.155.955zm1.06.09c.091-.334.14-.684.14-1.045 0-1.89-1.339-3.491-3.174-4.017.622-.83 1.651-1.372 2.813-1.372 1.896 0 3.439 1.444 3.439 3.22 0 1.707-1.425 3.108-3.219 3.215z" fill="currentColor"/></symbol><symbol fill="none" viewBox="0 0 18 19" id="smoke" xmlns="http://www.w3.org/2000/svg"><path d="M14.396 7.078l-12.09 5.874c-.71.345-1.07 1.164-.802 1.825l.325.8c.268.66 1.065.918 1.776.572l12.089-5.873c.71-.346 1.07-1.165.803-1.826l-.325-.8c-.268-.66-1.065-.917-1.776-.572zm-8.08 6.796L3.28 15.35c-.237.115-.502.03-.592-.191l-.324-.8c-.09-.22.03-.493.267-.608l3.037-1.475.649 1.598zm6.045-2.936l-5.185 2.519-.649-1.599 5.186-2.52.649 1.6zm1.72-.836l-.86.418-.649-1.599.86-.417.648 1.598zm1.556-1.234c.09.22-.03.493-.267.608l-.43.209-.65-1.599.43-.209c.238-.115.503-.029.593.191l.324.8zM10.238 3.706c-.575-.86-1.772-1.138-2.855-.602l-.792.392c-1.13.558-1.814 1.78-1.592 2.843.287 1.377 1.787 1.992 3.151 1.317l3.547-1.754c.245-.121.518-.035.61.192.09.227.363.313.608.192s.37-.403.278-.63l-.331-.823c-.404-1.006-1.524-1.458-2.624-1.127zm1.128 1.373L7.82 6.833c-.796.394-1.714.063-1.893-.795-.132-.635.295-1.374.995-1.72l.792-.391c.733-.363 1.552-.105 1.826.576.091.227.364.313.609.192.599-.296 1.255-.178 1.625.246a1.594 1.594 0 00-.408.138z" fill="currentColor"/></symbol><symbol fill="none" viewBox="0 0 16 16" id="weight" xmlns="http://www.w3.org/2000/svg"><path d="M13.5 0h-11A2.503 2.503 0 000 2.5v11A2.503 2.503 0 002.5 16h11a2.503 2.503 0 002.5-2.5v-11A2.503 2.503 0 0013.5 0zM15 13.5a1.5 1.5 0 01-1.5 1.5h-5v-3h-1v3h-5A1.5 1.5 0 011 13.5v-11A1.5 1.5 0 012.5 1h11A1.5 1.5 0 0115 2.5v11z" fill="currentColor"/><path d="M8 3h.06l.011-1h-.07c-.337 0-.672.024-1.004.072l.144.99A6 6 0 018.001 3zM6.25 3.267l-.305-.95a6.4 6.4 0 00-1 .417l.46.887c.272-.141.554-.26.845-.354z" fill="currentColor"/><path d="M9.142 2.093l-.165.987a5.339 5.339 0 012.925 1.5L10.692 7H8.933l1.482-2.223-.832-.555L7.733 7H5.309L4.1 4.578a4.91 4.91 0 01.535-.47l-.608-.796A5.1 5.1 0 003.1 4.2l-.185.25L4.69 8h6.618l1.778-3.558-.191-.25a6.167 6.167 0 00-3.754-2.099z" fill="currentColor"/></symbol></svg>